<?xml version="1.0" standalone="no"?>
<!DOCTYPE svg PUBLIC "-//W3C//DTD SVG 20010904//EN"
 "http://www.w3.org/TR/2001/REC-SVG-20010904/DTD/svg10.dtd">
<svg version="1.0" xmlns="http://www.w3.org/2000/svg"
 width="1776.000000pt" height="1776.000000pt" viewBox="0 0 1776.000000 1776.000000"
 preserveAspectRatio="xMidYMid meet">
<g transform="translate(0.000000,1776.000000) scale(0.100000,-0.100000)"
fill="#000000" stroke="none">
<path d="M8547 17754 c-2 -2 -44 -6 -93 -9 -97 -5 -199 -13 -254 -20 -75 -10
-197 -26 -225 -31 -16 -2 -46 -7 -65 -10 -19 -3 -69 -12 -110 -19 -41 -8 -86
-16 -100 -19 -14 -2 -45 -9 -70 -16 -25 -7 -52 -13 -60 -15 -8 -2 -42 -10 -75
-19 -33 -9 -71 -19 -84 -22 -14 -3 -28 -7 -33 -10 -4 -3 -16 -7 -26 -9 -59
-11 -399 -136 -457 -168 -11 -6 -22 -12 -25 -12 -13 -4 -67 -26 -82 -35 -10
-6 -61 -33 -115 -61 -53 -28 -113 -62 -132 -75 -20 -13 -39 -24 -43 -24 -12 0
-200 -131 -303 -211 -146 -114 -155 -122 -299 -265 -145 -145 -196 -200 -196
-214 0 -4 -4 -10 -9 -12 -10 -3 -101 -114 -101 -122 0 -3 -8 -14 -17 -24 -25
-26 -50 -57 -54 -68 -2 -5 -34 -54 -70 -109 -78 -119 -191 -315 -181 -315 4 0
2 -4 -4 -8 -7 -4 -26 -38 -44 -77 -18 -38 -43 -92 -55 -120 -13 -27 -37 -86
-54 -130 -18 -44 -36 -89 -41 -100 -33 -73 -154 -478 -174 -585 -5 -27 -12
-59 -22 -105 -4 -16 -8 -39 -10 -50 -2 -11 -9 -54 -18 -95 -8 -41 -17 -95 -20
-120 -3 -25 -8 -54 -10 -65 -2 -11 -7 -49 -11 -85 -4 -36 -9 -76 -11 -90 -2
-14 -6 -54 -9 -90 -4 -36 -8 -87 -11 -115 -2 -27 -7 -81 -11 -120 -9 -98 -14
-9975 -5 -9989 3 -6 8 -40 9 -76 1 -36 2 -65 3 -65 0 0 3 -22 5 -50 6 -76 15
-177 20 -210 6 -47 16 -117 21 -150 2 -16 7 -48 9 -70 3 -22 7 -51 10 -65 3
-14 8 -41 11 -60 2 -19 9 -55 14 -80 5 -25 12 -57 14 -73 3 -15 7 -35 10 -45
3 -9 7 -28 10 -42 3 -14 14 -61 26 -105 12 -44 24 -93 27 -110 3 -16 9 -38 14
-47 5 -10 7 -18 3 -18 -3 0 -1 -7 6 -15 7 -8 10 -15 7 -15 -3 0 3 -23 14 -51
10 -29 16 -55 14 -60 -3 -4 -2 -9 2 -11 5 -1 20 -39 35 -83 14 -44 36 -101 47
-128 11 -26 21 -49 21 -52 5 -29 141 -319 179 -380 13 -22 23 -40 21 -40 -4 0
9 -21 57 -97 12 -21 23 -40 23 -42 0 -3 33 -53 73 -112 39 -59 77 -114 82
-123 6 -9 12 -18 15 -21 3 -3 17 -21 32 -41 33 -45 49 -64 144 -174 187 -216
419 -419 659 -577 132 -86 275 -169 275 -160 0 4 4 3 8 -3 11 -15 183 -97 317
-150 66 -26 129 -51 140 -56 31 -13 265 -88 295 -94 8 -2 60 -15 115 -29 55
-15 111 -29 125 -31 14 -2 41 -6 60 -9 19 -4 41 -8 48 -11 7 -2 34 -7 60 -11
26 -3 50 -8 53 -10 4 -2 26 -6 50 -9 24 -3 55 -8 69 -11 14 -2 41 -7 60 -9
115 -14 130 -14 131 -2 4 72 9 143 14 192 6 67 18 226 19 267 1 16 4 28 8 28
4 0 3 11 -2 24 -5 13 -6 27 -3 30 4 3 7 25 8 49 2 23 6 85 10 137 4 52 9 127
11 165 2 39 6 97 9 130 2 33 6 101 9 150 4 50 8 115 11 145 7 91 18 272 19
323 0 26 4 47 9 47 4 0 3 8 -2 19 -6 10 -8 21 -5 23 4 5 8 57 18 273 13 249
17 337 21 437 2 59 6 112 9 117 4 5 2 12 -3 15 -4 3 -5 23 -1 43 8 45 5 830
-3 888 -3 22 -9 55 -12 72 -3 18 -6 35 -6 38 1 10 -32 92 -62 155 -41 84 -122
205 -192 287 -117 136 -499 523 -518 523 -6 0 -8 3 -5 6 4 3 -12 22 -34 42
-155 140 -392 402 -456 503 -61 96 -151 300 -177 399 -2 8 -15 58 -29 110 -14
52 -35 142 -46 200 -12 58 -23 112 -25 120 -3 18 -14 83 -20 127 -3 18 -7 48
-10 65 -3 18 -8 58 -11 88 -4 30 -8 69 -10 85 -2 17 -6 53 -9 80 -2 28 -7 73
-10 100 -3 28 -7 86 -10 130 -3 44 -7 105 -9 135 -10 131 -19 444 -19 670 -1
215 3 302 18 500 7 103 17 228 20 275 2 28 7 82 10 120 3 39 8 99 10 135 3 36
7 88 10 115 2 28 7 79 10 115 7 88 13 151 20 240 4 41 9 100 11 130 2 30 6 71
8 90 2 19 7 73 10 120 4 47 9 105 11 130 3 25 8 74 10 110 3 36 7 85 10 110 2
25 6 74 9 110 3 36 8 99 12 140 4 41 7 85 7 98 1 12 3 22 7 22 3 0 5 26 6 58
0 31 4 93 8 137 4 44 9 103 11 130 3 28 7 77 10 110 3 33 8 85 11 115 2 30 7
77 10 103 3 27 7 76 10 110 2 34 6 80 9 102 2 22 7 76 10 120 3 44 7 94 9 110
4 31 15 152 21 220 2 22 6 72 10 110 4 39 8 86 9 105 5 58 18 193 22 230 2 19
7 69 10 110 3 41 7 89 9 105 1 17 6 66 9 110 4 44 9 96 11 115 3 19 7 67 10
105 3 39 8 86 10 105 2 19 7 69 10 110 4 41 8 93 11 115 2 22 6 67 9 100 3 33
7 83 10 110 3 28 8 82 11 120 3 39 8 86 10 105 2 19 6 60 8 91 2 31 7 78 10
105 3 27 8 76 11 109 3 33 8 87 11 120 3 33 7 76 8 95 15 170 18 206 22 224 2
12 5 40 6 64 l1 42 178 0 178 0 -4 -212 c-9 -378 -16 -689 -19 -849 -1 -86 -6
-161 -9 -166 -4 -6 -1 -14 5 -16 10 -4 10 -6 0 -6 -9 -1 -10 -6 -3 -20 6 -10
8 -21 5 -23 -2 -3 -7 -108 -9 -234 -3 -126 -7 -310 -10 -409 -6 -218 -16 -697
-19 -893 -2 -78 -6 -145 -9 -148 -3 -4 -2 -14 3 -24 5 -10 7 -20 4 -23 -4 -3
-8 -102 -9 -219 -2 -117 -6 -312 -10 -433 -11 -456 -16 -666 -20 -870 -6 -267
-18 -795 -31 -1315 -3 -140 -7 -321 -8 -401 -1 -80 -6 -151 -10 -157 -4 -7 -3
-12 1 -12 9 0 8 -73 -1 -96 -3 -7 -1 -16 5 -20 6 -3 6 -11 1 -17 -12 -17 -7
-155 7 -207 15 -51 47 -117 67 -138 8 -7 14 -17 14 -21 0 -4 24 -22 54 -40 46
-27 64 -33 114 -32 136 0 219 103 227 281 2 41 7 138 10 215 3 77 8 183 10
235 5 110 15 334 20 435 2 39 6 140 9 225 8 182 15 348 21 480 9 173 9 205 1
218 -4 6 -3 12 2 12 4 0 9 12 9 28 1 41 13 334 18 437 2 50 7 149 10 220 3 72
7 175 10 230 3 55 7 154 10 220 5 132 13 301 20 470 3 61 7 162 10 225 8 197
14 340 20 465 3 66 7 167 10 225 6 146 14 337 20 455 5 95 12 253 20 470 2 55
4 100 5 100 0 0 3 47 5 105 5 146 15 366 21 490 3 58 7 150 9 205 6 142 16
368 20 450 2 39 4 78 4 88 1 16 17 17 186 17 169 0 185 -1 186 -17 0 -10 2
-1501 5 -3313 2 -1812 4 -3301 4 -3307 1 -7 0 -28 -1 -45 -8 -204 110 -348
286 -350 95 -2 197 62 234 147 27 61 31 74 37 129 3 28 8 54 10 58 2 4 0 9 -6
13 -6 4 -7 11 -4 17 4 6 8 1508 9 3337 l2 3326 187 3 c145 2 186 0 187 -10 1
-31 9 -193 13 -301 3 -65 8 -122 11 -127 4 -6 1 -10 -5 -10 -6 0 -8 -5 -4 -12
7 -11 14 -148 17 -340 1 -49 4 -88 7 -88 3 0 6 -39 6 -88 1 -48 5 -157 8 -242
4 -85 9 -195 11 -245 1 -49 6 -151 10 -225 3 -74 8 -180 10 -235 13 -309 16
-369 20 -373 2 -3 0 -13 -6 -23 -5 -11 -6 -19 -1 -19 4 0 8 -19 8 -42 1 -45
12 -333 19 -453 2 -38 7 -144 10 -235 4 -91 9 -194 10 -230 2 -36 6 -132 9
-215 4 -82 9 -195 11 -250 13 -289 16 -359 20 -460 3 -60 7 -162 10 -225 6
-126 12 -265 20 -465 3 -71 7 -168 10 -215 4 -83 12 -262 20 -470 2 -58 7
-157 10 -220 7 -149 16 -343 20 -450 1 -47 6 -157 10 -245 4 -88 9 -180 10
-205 4 -101 30 -172 81 -224 81 -81 227 -76 309 11 29 32 81 133 91 178 7 31
8 195 1 253 -2 17 1 32 6 32 4 0 5 5 1 11 -3 6 -8 93 -10 192 -2 100 -6 286
-9 412 -12 532 -16 690 -19 878 -2 109 -6 201 -9 204 -3 3 -2 15 3 28 5 13 6
26 3 29 -3 3 -7 86 -9 183 -1 98 -5 275 -8 393 -10 406 -18 735 -20 886 -2 83
-6 157 -10 163 -4 6 -4 11 1 11 7 0 9 54 3 70 -1 3 -2 19 -1 35 1 17 1 35 1
40 -4 135 -9 325 -14 545 -4 151 -9 361 -11 465 -3 105 -7 294 -10 420 -3 127
-6 239 -9 250 -2 11 1 28 6 38 5 9 5 17 1 17 -4 0 -9 60 -9 133 -2 127 -9 455
-19 870 l-5 197 177 -2 178 -3 2 -30 c1 -16 5 -55 8 -85 3 -30 8 -77 10 -105
3 -27 7 -77 10 -110 4 -33 8 -80 10 -105 11 -122 15 -160 21 -215 3 -33 8 -85
9 -115 2 -30 4 -55 5 -55 1 0 3 -16 5 -35 4 -57 17 -203 20 -235 3 -27 9 -91
20 -210 2 -22 6 -65 9 -95 3 -30 8 -84 11 -120 3 -36 7 -85 10 -110 3 -25 8
-74 11 -110 3 -36 7 -81 8 -100 2 -19 6 -66 10 -105 3 -38 9 -97 12 -130 3
-33 8 -80 10 -105 9 -113 13 -151 19 -160 3 -5 1 -10 -5 -10 -6 0 -8 -5 -4
-12 4 -6 8 -25 10 -42 3 -46 14 -165 19 -211 8 -68 16 -157 20 -220 2 -33 6
-80 9 -105 3 -25 8 -74 11 -110 3 -36 7 -87 10 -115 2 -27 7 -84 11 -125 3
-41 7 -88 9 -105 2 -16 6 -68 10 -115 4 -47 9 -98 11 -115 2 -16 6 -61 9 -100
8 -96 12 -149 20 -220 3 -33 8 -89 11 -125 3 -36 6 -81 8 -100 2 -19 7 -71 10
-115 4 -44 8 -96 10 -115 2 -19 7 -73 11 -120 3 -47 8 -101 10 -120 2 -19 6
-73 10 -120 3 -47 8 -98 9 -115 7 -61 18 -192 22 -245 9 -121 17 -209 29 -345
6 -68 17 -215 30 -395 3 -47 8 -110 10 -140 27 -313 23 -835 -10 -1250 -3 -41
-8 -106 -11 -145 -3 -38 -7 -83 -9 -100 -1 -16 -6 -61 -10 -100 -3 -38 -8 -81
-10 -94 -2 -13 -7 -45 -11 -70 -3 -25 -8 -57 -10 -71 -6 -34 -13 -77 -19 -124
-3 -21 -7 -41 -9 -45 -2 -3 -7 -26 -11 -51 -4 -25 -8 -47 -10 -50 -2 -3 -6
-25 -10 -50 -4 -24 -11 -52 -16 -62 -5 -9 -9 -21 -8 -25 1 -4 0 -10 -1 -13 -1
-3 -3 -12 -5 -20 -6 -30 -54 -186 -75 -245 -39 -108 -146 -315 -180 -345 -3
-3 -32 -36 -65 -74 -80 -93 -188 -206 -314 -329 -358 -351 -581 -580 -581
-597 0 -5 -4 -10 -9 -12 -5 -1 -32 -34 -60 -73 -28 -38 -55 -75 -60 -81 -41
-50 -145 -288 -140 -322 1 -4 1 -9 -1 -12 -27 -74 -25 -803 5 -1375 4 -80 15
-282 21 -400 2 -44 6 -116 9 -160 4 -83 10 -186 21 -340 8 -117 12 -172 18
-270 8 -125 17 -245 22 -304 3 -29 7 -83 9 -120 12 -187 16 -250 20 -286 3
-22 8 -83 11 -135 3 -52 7 -108 9 -125 2 -16 3 -36 4 -42 1 -12 38 -11 121 2
14 2 48 7 75 11 49 6 66 9 115 19 48 9 95 17 120 20 14 2 25 4 25 5 0 1 11 3
25 6 14 2 72 16 130 30 58 14 114 27 125 30 30 6 157 44 180 54 11 5 32 11 47
14 15 4 40 11 55 18 15 6 30 12 33 12 3 1 50 19 105 41 55 22 102 40 105 40
34 5 462 230 468 247 2 4 8 8 13 8 17 0 274 183 364 260 127 108 341 325 415
421 14 18 30 37 35 43 27 28 155 205 155 214 0 6 4 12 8 14 7 3 72 95 72 103
0 2 23 40 50 84 28 44 50 83 50 87 0 3 9 19 21 35 11 16 17 29 14 29 -3 0 3
13 14 29 12 16 21 31 21 34 0 3 20 47 44 98 25 51 43 96 40 101 -3 4 -1 8 4 8
5 0 24 39 42 88 18 48 39 101 45 117 22 52 43 110 42 115 0 7 25 83 32 95 3 6
6 15 7 20 1 6 21 80 43 165 23 85 43 164 45 175 2 11 6 29 9 40 3 11 8 36 11
55 3 19 8 46 11 60 11 48 44 245 50 295 7 57 13 100 20 148 3 17 7 59 9 92 4
56 10 118 24 260 8 89 13 9965 4 9965 -4 0 -7 17 -8 38 -1 56 -14 237 -19 264
-3 13 -7 46 -9 73 -6 60 -14 127 -21 175 -3 19 -7 53 -10 75 -3 22 -8 51 -10
65 -3 14 -8 36 -10 50 -13 76 -18 99 -26 140 -5 25 -12 56 -14 70 -20 95 -106
415 -130 480 -7 19 -16 44 -21 55 -4 11 -8 27 -10 35 -2 8 -7 23 -13 35 -5 11
-21 52 -36 90 -15 39 -33 84 -40 100 -56 128 -75 170 -114 245 -130 255 -287
492 -451 685 -136 160 -316 335 -440 430 -36 28 -69 55 -75 61 -26 29 -231
165 -372 247 -130 74 -475 232 -553 253 -8 2 -69 22 -135 45 -111 37 -410 116
-480 125 -16 3 -41 7 -55 11 -38 9 -41 10 -95 17 -27 3 -61 8 -75 11 -14 3
-45 8 -70 11 -25 3 -56 7 -70 9 -14 3 -59 7 -100 10 -41 4 -88 8 -105 11 -16
3 -61 8 -100 11 -89 6 -782 12 -788 7z"/>
</g>
</svg>
