<svg xmlns="http://www.w3.org/2000/svg" width="161.341" height="617.365" viewBox="0 0 161.341 617.365">
  <g id="Group_10" data-name="Group 10" transform="translate(-21.479 727.597) rotate(-90)">
    <path id="Path_17" data-name="Path 17" d="M110.232,22.82h74.086V45.142h-46.08V88.668h36.152v22.32H138.237v68.082H110.232Z" transform="translate(0 1.205)" fill="#f82626"/>
    <path id="Path_18" data-name="Path 18" d="M229.371,31.784q-10.951-10.3-31.569-10.3t-31.569,10.3q-10.948,10.307-10.948,29.121v82.439q0,18.818,10.948,29.121c5.994,5.645,14.206,8.931,24.557,9.939.649-7.167,2.54-29.327,1.413-32.9-1.35-4.274-7.76-8.014-12.347-12.852s-4.655-18.678-4.655-23,5.667-57.466,5.667-57.466h3.643l-1.595,60.834s.456,2.628,2.683,2.628a2.333,2.333,0,0,0,2.352-2.227l3.036-61.235h3.847s.032,57.347.066,60.612a2.909,2.909,0,1,0,5.8,0c.034-3.264.066-60.612.066-60.612h3.847l3.036,61.235A2.333,2.333,0,0,0,210,119.642c2.227,0,2.683-2.628,2.683-2.628L211.092,56.18h3.644s5.667,53.139,5.667,57.466-.068,18.165-4.655,23-11,8.579-12.347,12.852c-1.128,3.575.763,25.735,1.413,32.9,10.35-1.007,18.559-4.294,24.557-9.939q10.942-10.3,10.948-29.121V60.905Q240.318,42.088,229.371,31.784Z" transform="translate(40.487)" fill="#f82626"/>
    <path id="Path_19" data-name="Path 19" d="M219.868,172.2q10.947,10.3,31.567,10.305T283,172.2q10.951-10.308,10.95-29.124V60.629q0-18.819-10.95-29.125c-6.117-5.763-14.54-9.074-25.2-10L255.7,75.352s-.256,3.116,2.5,4.065c7.87,2.71,19.235,13.278,18.21,32.248S265.116,147.8,251.773,147.8s-24.3-16.563-25.322-36.435S239.8,80.951,243.5,80.047a4.661,4.661,0,0,0,3.788-4.215l-2.011-54.352c-10.76.9-19.249,4.224-25.411,10.025q-10.945,10.3-10.948,29.125v82.445Q208.92,161.89,219.868,172.2Z" transform="translate(88.687)" fill="#f82626"/>
    <path id="Path_20" data-name="Path 20" d="M263.627,22.82H306.4q20.873,0,31.314,9.822t10.439,28.794v79.018q0,18.975-10.439,28.8T306.4,179.071H263.627Zm42.262,133.927q6.875,0,10.566-3.571t3.693-11.608V60.32q0-8.038-3.693-11.608t-10.566-3.571H291.632V156.747Z" transform="translate(137.849 1.205)" fill="#f82626"/>
    <path id="Path_21" data-name="Path 21" d="M318.066,22.82h28V179.071h-28Z" transform="translate(186.771 1.205)" fill="#f82626"/>
    <path id="Path_22" data-name="Path 22" d="M351.7,172.626q-10.441-10.2-10.437-29.244v-8.963h26.477v10.756q0,15.241,14.511,15.236,7.126,0,10.821-3.7t3.691-11.987a30.2,30.2,0,0,0-5.092-17.367q-5.1-7.505-18.838-18.04-17.316-13.444-24.187-24.312a44.926,44.926,0,0,1-6.875-24.538q0-18.6,10.693-28.795t31.062-10.2q20.107,0,30.422,10.2t10.311,29.242v6.5H397.779V59.35q0-8.069-3.564-11.765t-10.439-3.7q-14,0-14,15.014a27.055,27.055,0,0,0,5.219,15.91q5.215,7.4,18.968,17.927,17.566,13.444,24.185,24.424t6.619,25.77q0,19.277-10.818,29.58T382.5,182.82Q362.134,182.82,351.7,172.626Z" transform="translate(207.617)" fill="#f82626"/>
    <path id="Path_23" data-name="Path 23" d="M419.078,45.142H389.8V22.82h86.56V45.142H447.083V179.071H419.078Z" transform="translate(251.237 1.205)" fill="#f82626"/>
  </g>
</svg>
