<svg xmlns="http://www.w3.org/2000/svg" width="398.966" height="167.182" viewBox="0 0 398.966 167.182">
  <g id="Group_8" data-name="Group 8" transform="translate(-110.232 -21.479)">
    <path id="Path_17" data-name="Path 17" d="M110.232,22.82h47.877V39.273H128.33V71.355h23.363V87.806H128.33v50.181h-18.1Z" transform="translate(0 0.304)" fill="#f4c606"/>
    <path id="Path_18" data-name="Path 18" d="M203.162,29.047q-7.077-7.566-20.4-7.568t-20.4,7.568q-7.075,7.57-7.075,21.388V110.98q0,13.82,7.075,21.388c3.874,4.146,9.18,6.559,15.87,7.3.42-5.264,1.642-21.539.913-24.164-.872-3.139-5.015-5.886-7.979-9.439s-3.009-13.718-3.009-16.894,3.663-42.2,3.663-42.2h2.355l-1.031,44.678s.294,1.93,1.734,1.93,1.52-1.636,1.52-1.636l1.962-44.973h2.486s.021,42.118.043,44.515c.02,2.193,1.6,2.288,1.875,2.29s1.855-.1,1.875-2.29c.022-2.4.043-44.515.043-44.515h2.486l1.962,44.973s.082,1.636,1.52,1.636,1.734-1.93,1.734-1.93L191.35,46.965H193.7s3.663,39.027,3.663,42.2-.044,13.341-3.008,16.894-7.107,6.3-7.979,9.439c-.729,2.626.493,18.9.913,24.164,6.688-.74,11.994-3.153,15.87-7.3q7.071-7.564,7.075-21.388V50.435Q210.237,36.615,203.162,29.047Z" transform="translate(10.226)" fill="#f4c606"/>
    <path id="Path_19" data-name="Path 19" d="M215.995,132.163q7.075,7.566,20.4,7.568t20.4-7.568q7.077-7.57,7.076-21.388V50.23q0-13.82-7.076-21.389c-3.953-4.232-9.4-6.664-16.283-7.346l-1.363,39.547s-.166,2.288,1.617,2.985c5.086,1.99,12.431,9.751,11.768,23.682s-7.3,26.536-15.921,26.536-15.7-12.163-16.364-26.757,8.624-22.335,11.02-23a3.381,3.381,0,0,0,2.448-3.1l-1.3-39.915c-6.953.663-12.439,3.1-16.422,7.362q-7.073,7.566-7.075,21.389v60.546Q208.92,124.594,215.995,132.163Z" transform="translate(22.401)" fill="#f4c606"/>
    <path id="Path_20" data-name="Path 20" d="M263.627,22.82h27.64q13.489,0,20.237,7.239t6.746,21.223v58.241q0,13.986-6.746,21.224t-20.237,7.239h-27.64Zm27.311,98.714a8.737,8.737,0,0,0,6.828-2.632q2.383-2.63,2.387-8.556V50.46q0-5.925-2.387-8.556a8.75,8.75,0,0,0-6.828-2.632h-9.213v82.261Z" transform="translate(34.819 0.304)" fill="#f4c606"/>
    <path id="Path_21" data-name="Path 21" d="M318.066,22.82h18.1V137.988h-18.1Z" transform="translate(47.176 0.304)" fill="#f4c606"/>
    <path id="Path_22" data-name="Path 22" d="M348.007,132.451q-6.747-7.487-6.745-21.471V104.4h17.11v7.9q0,11.19,9.378,11.186,4.605,0,6.993-2.714t2.385-8.8a24.4,24.4,0,0,0-3.291-12.751q-3.294-5.51-12.174-13.245-11.19-9.871-15.631-17.85a36.4,36.4,0,0,1-4.443-18.016q0-13.655,6.91-21.141t20.073-7.486q12.994,0,19.66,7.486t6.664,21.47v4.772H377.786V49.284q0-5.925-2.3-8.638t-6.746-2.714q-9.05,0-9.049,11.023a21.734,21.734,0,0,0,3.373,11.681q3.37,5.429,12.258,13.162,11.352,9.871,15.629,17.932a39.811,39.811,0,0,1,4.277,18.92q0,14.153-6.991,21.718t-20.32,7.568Q354.75,139.936,348.007,132.451Z" transform="translate(52.441)" fill="#f4c606"/>
    <path id="Path_23" data-name="Path 23" d="M408.721,39.273H389.8V22.82h55.938V39.273h-18.92v98.715h-18.1Z" transform="translate(63.459 0.304)" fill="#f4c606"/>
  </g>
  <path id="Path_30" data-name="Path 30" d="M7.4.37a5.975,5.975,0,0,1-4.588-1.7,6.777,6.777,0,0,1-1.591-4.81V-19.758a6.777,6.777,0,0,1,1.591-4.81A5.975,5.975,0,0,1,7.4-26.27a5.975,5.975,0,0,1,4.588,1.7,6.777,6.777,0,0,1,1.591,4.81V-6.142a6.777,6.777,0,0,1-1.591,4.81A5.975,5.975,0,0,1,7.4.37Zm0-3.7q2.109,0,2.109-2.553V-20.017q0-2.553-2.109-2.553T5.291-20.017V-5.883Q5.291-3.33,7.4-3.33ZM16.317-25.9h6.142a6.227,6.227,0,0,1,4.588,1.462,6.172,6.172,0,0,1,1.443,4.5v1.036a7.111,7.111,0,0,1-.648,3.256,3.8,3.8,0,0,1-1.979,1.813v.074q3.034,1.036,3.034,5.4v2.22a6.189,6.189,0,0,1-1.572,4.57A6.243,6.243,0,0,1,22.718,0h-6.4Zm5.661,10.545a2.443,2.443,0,0,0,1.832-.629,2.972,2.972,0,0,0,.611-2.109v-1.443a3.287,3.287,0,0,0-.5-2.035,1.887,1.887,0,0,0-1.573-.629H20.387v6.845ZM22.718-3.7a2.039,2.039,0,0,0,1.591-.573,2.955,2.955,0,0,0,.518-1.98V-8.51a3.749,3.749,0,0,0-.611-2.461,2.586,2.586,0,0,0-2.016-.684H20.387V-3.7ZM32.227.148A10.268,10.268,0,0,1,30.34,0V-3.7a5.5,5.5,0,0,0,1.332.148,2.422,2.422,0,0,0,1.813-.611,2.593,2.593,0,0,0,.592-1.868V-25.9h4.07V-6.142a6.7,6.7,0,0,1-1.462,4.736A5.846,5.846,0,0,1,32.227.148ZM41.07-25.9h11.1v3.7H45.14v6.845h5.587v3.7H45.14V-3.7h7.03V0H41.07Zm13.431,0h6.216a5.927,5.927,0,0,1,4.551,1.628A6.761,6.761,0,0,1,66.785-19.5V-6.4a6.761,6.761,0,0,1-1.517,4.773A5.927,5.927,0,0,1,60.717,0H54.5ZM60.643-3.7a1.966,1.966,0,0,0,1.535-.592,2.824,2.824,0,0,0,.537-1.924V-19.684a2.824,2.824,0,0,0-.537-1.924,1.966,1.966,0,0,0-1.535-.592H58.571V-3.7Zm8.88-22.2h5.106l3.959,15.5h.074V-25.9h3.626V0H78.107L73.223-18.907h-.074V0H69.523Zm18.944,0H93.98L98.2,0h-4.07l-.74-5.143v.074H88.763L88.023,0H84.249Zm4.44,17.316-1.813-12.8H91.02l-1.776,12.8Zm-1.295-23.31h4.44l-3.959,4.255H89.022ZM98.05-25.9h4.107l2.664,20.091h.074L107.559-25.9H111.3L107.374,0h-5.4Zm15.207,0h4.07v10.915l5.18-10.915h4.07l-4.847,9.509L126.651,0H122.4l-3.441-11.544-1.628,3.293V0h-4.07ZM133.866.37a5.975,5.975,0,0,1-4.588-1.7,6.777,6.777,0,0,1-1.591-4.81V-19.758a6.777,6.777,0,0,1,1.591-4.81,5.975,5.975,0,0,1,4.588-1.7,5.975,5.975,0,0,1,4.588,1.7,6.777,6.777,0,0,1,1.591,4.81V-6.142a6.777,6.777,0,0,1-1.591,4.81A5.975,5.975,0,0,1,133.866.37Zm0-3.7q2.109,0,2.109-2.553V-20.017q0-2.553-2.109-2.553t-2.109,2.553V-5.883Q131.757-3.33,133.866-3.33Zm7.77-22.57h4.107l2.664,20.091h.074L151.145-25.9h3.737L150.96,0h-5.4ZM160.58-11.026,155.659-25.9h4.329l2.775,9.509h.074l2.775-9.509h3.959L164.65-11.026V0h-4.07Zm2.4-20.868h4.44l-3.959,4.255H160.4ZM182.632.37a5.719,5.719,0,0,1-4.477-1.684,6.975,6.975,0,0,1-1.517-4.829v-1.48h3.848v1.776q0,2.516,2.109,2.516a1.982,1.982,0,0,0,1.573-.611,2.968,2.968,0,0,0,.536-1.98,5.486,5.486,0,0,0-.74-2.867,13.677,13.677,0,0,0-2.738-2.979,16.392,16.392,0,0,1-3.515-4.014,8.187,8.187,0,0,1-1-4.052,6.752,6.752,0,0,1,1.554-4.755,5.839,5.839,0,0,1,4.514-1.683,5.611,5.611,0,0,1,4.422,1.683,7.031,7.031,0,0,1,1.5,4.829v1.073h-3.848v-1.332a2.975,2.975,0,0,0-.518-1.943,1.878,1.878,0,0,0-1.517-.61q-2.035,0-2.035,2.479a4.89,4.89,0,0,0,.759,2.627A14.5,14.5,0,0,0,184.3-14.5a15.23,15.23,0,0,1,3.515,4.033,8.951,8.951,0,0,1,.962,4.255A6.942,6.942,0,0,1,187.2-1.332,5.914,5.914,0,0,1,182.632.37Zm11.988-11.4L189.7-25.9h4.329l2.775,9.509h.074l2.775-9.509h3.959L198.69-11.026V0h-4.07ZM210.16.37a5.719,5.719,0,0,1-4.477-1.684,6.975,6.975,0,0,1-1.517-4.829v-1.48h3.848v1.776q0,2.516,2.109,2.516a1.982,1.982,0,0,0,1.573-.611,2.968,2.968,0,0,0,.536-1.98,5.486,5.486,0,0,0-.74-2.867,13.677,13.677,0,0,0-2.738-2.979,16.392,16.392,0,0,1-3.515-4.014,8.187,8.187,0,0,1-1-4.052,6.752,6.752,0,0,1,1.554-4.755,5.839,5.839,0,0,1,4.514-1.683,5.611,5.611,0,0,1,4.422,1.683,7.031,7.031,0,0,1,1.5,4.829v1.073H212.38v-1.332a2.975,2.975,0,0,0-.518-1.943,1.878,1.878,0,0,0-1.517-.61q-2.035,0-2.035,2.479a4.89,4.89,0,0,0,.758,2.627,14.5,14.5,0,0,0,2.757,2.96,15.23,15.23,0,0,1,3.515,4.033,8.951,8.951,0,0,1,.962,4.255,6.942,6.942,0,0,1-1.572,4.884A5.914,5.914,0,0,1,210.16.37ZM221.815-22.2H217.56v-3.7h12.58v3.7h-4.255V0h-4.07ZM232.1-25.9h11.1v3.7h-7.03v6.845h5.587v3.7h-5.587V-3.7h7.03V0H232.1Zm5.92-5.994h4.44L238.5-27.639h-3.071Zm7.511,5.994h5.809l2.59,18.537h.074L256.6-25.9H262.4V0h-3.848V-19.61h-.074L255.522,0h-3.4l-2.96-19.61h-.074V0h-3.552Z" transform="translate(0.208 166.812)" fill="#f4c606"/>
</svg>
