<svg xmlns="http://www.w3.org/2000/svg" viewBox="0 0 325.16 96.54"><title>logoBy:martinWeiss.cz</title><path style="fill:#ffffff;" d="M0,1.34H39V14.75H14.75V40.9h19V54.31h-19V95.2H0Z"/><path style="fill:#ffffff;" d="M84.07,6.17Q78.31,0,67.45,0T50.82,6.17Q45,12.34,45.05,23.6V72.94q0,11.27,5.77,17.44,4.74,5.06,12.93,5.94c.35-4.29,1.34-17.55.75-19.69-.71-2.56-4.09-4.8-6.51-7.69s-2.45-11.18-2.45-13.77,3-34.4,3-34.4h1.92l-.84,36.41s.24,1.58,1.41,1.58,1.24-1.34,1.24-1.34l1.6-36.65h2s0,34.33,0,36.28c0,1.79,1.3,1.87,1.53,1.87S69,58.84,69,57.05c0-1.95,0-36.28,0-36.28h2l1.6,36.65s.07,1.34,1.24,1.34,1.42-1.58,1.42-1.58l-.84-36.41h1.91s3,31.81,3,34.4,0,10.87-2.45,13.77-5.79,5.13-6.51,7.69c-.59,2.14.41,15.4.75,19.69q8.17-.9,12.93-5.94,5.78-6.16,5.77-17.44V23.6Q89.84,12.34,84.07,6.17Z"/><path style="fill:#ffffff;" d="M104.45,90.21q5.77,6.17,16.63,6.17t16.63-6.17q5.76-6.17,5.76-17.43V23.43q0-11.26-5.76-17.43c-3.23-3.45-7.66-5.43-13.27-6l-1.12,32.23s-.13,1.87,1.32,2.44c4.15,1.62,10.13,7.94,9.59,19.3s-5.94,21.63-13,21.63-12.8-9.92-13.34-21.81,7-18.2,9-18.75a2.77,2.77,0,0,0,2-2.52L117.84,0q-8.5.81-13.39,6-5.76,6.16-5.76,17.43V72.78Q98.69,84,104.45,90.21Z"/><path style="fill:#ffffff;" d="M153.4,1.34h22.52q11,0,16.5,5.9t5.49,17.3V72q0,11.38-5.49,17.29t-16.5,5.9H153.4Zm22.25,80.45a7.13,7.13,0,0,0,5.57-2.14c1.29-1.43,1.94-3.76,1.94-7V23.87q0-4.83-1.94-7a7.14,7.14,0,0,0-5.57-2.15h-7.51v67Z"/><path style="fill:#ffffff;" d="M207.83,1.34h14.75V95.2H207.83Z"/><path style="fill:#ffffff;" d="M236.53,90.44q-5.5-6.09-5.5-17.5V67.58H245V74q0,9.12,7.65,9.11a7.18,7.18,0,0,0,5.7-2.21q1.94-2.2,1.94-7.17a19.85,19.85,0,0,0-2.68-10.39q-2.69-4.5-9.92-10.8-9.12-8-12.74-14.55a29.56,29.56,0,0,1-3.62-14.68q0-11.13,5.63-17.23T253.29,0q10.59,0,16,6.1t5.43,17.5v3.89H260.8V22.66c0-3.22-.63-5.56-1.88-7a6.83,6.83,0,0,0-5.5-2.21q-7.38,0-7.37,9a17.65,17.65,0,0,0,2.75,9.52q2.74,4.43,10,10.73,9.24,8,12.73,14.62A32.37,32.37,0,0,1,275,72.68q0,11.53-5.7,17.7t-16.56,6.16Q242,96.54,236.53,90.44Z"/><path style="fill:#ffffff;" d="M295,14.75H279.57V1.34h45.59V14.75H309.74V95.2H295Z"/></svg>