<svg xmlns="http://www.w3.org/2000/svg" viewBox="0 0 500 500"><path fill="#424c56" d="M-.3 0h500v500H-.3z"/><path d="M302.6 316.9s14.1 19 18.5 22.6c4.4 3.6 104.9 35.4 120.9 56.8C462.6 424 469.5 500 469 500H31c-.5 0 5.8-76 26.4-103.7 16-21.4 116.4-53.2 120.9-56.8 4.4-3.6 18.5-22.6 18.5-22.6h1v-20.5c0-.2-.1-.4-.2-.6-5.9-7.5-10.5-15.1-13.5-21.2-2-4.1-3.7-12.7-5.1-23.8 0-.3-.2-.6-.5-.7-16.2-7.9-18.1-34-18.8-48.7-.3-7 2.9-7.9 6.6-6.6.7.2 1.4-.4 1.1-1.1-6-16.3-11-33-14.9-49.9-.1-.5-.6-.8-1-.7-1.9.4-3.9.8-5.8 1.2-.7.1-1.3-.6-1-1.3 6.3-13 18.4-23.1 32.3-27.1.4-.1.6-.4.6-.8.1-3.2.7-6.4 1.7-9.4.3-.9 1.6-.8 1.7.1v.1c.2.9 1.4 1 1.7.2 2.4-7 6.2-13.5 11-19 .6-.7 1.7-.1 1.6.8-.6 3.1-1.2 6.3-1.8 9.4-.2.8.8 1.4 1.5.8 18.8-16.9 48.6-13.8 63.9-9 .6.2 1.3.4 1.9.5h.4c10.7-2 21.1-5.7 30.5-11.1.7-.4 1.6.3 1.3 1-1.2 3.6-4.4 6.6-7.4 9.6-.6.6-.1 1.6.7 1.5 20.4-1.2 43.3-5.6 48.4-6.5.5-.1 1.1.3 1.1.9.1 6.1-1.6 13.7-3.7 20.6-.2.7.5 1.4 1.2 1.1 2.5-1.1 4.9-2.3 7.3-3.7.7-.4 1.6.3 1.3 1.1-2.7 6.9-5.3 13.9-8 20.8-.3.8.6 1.6 1.3 1.1.5-.4 1.1-.7 1.6-1.1.6-.4 1.4 0 1.4.7.6 21.4.2 43.1-6.8 63.3-.5 1.3-1 2.6-1.6 3.9-.3.8-.6 1.7-.9 2.5-.3.8.5 1.5 1.3 1.1 4.7-2.5 9.7-3.2 9.3 5.4-.7 14.7-2.7 40.9-18.8 48.7-.3.1-.5.4-.5.7-1.5 11-3.2 19.7-5.1 23.8-2.9 6-7.4 13.4-13.1 20.8-.1.2-.2.3-.2.5v21h.8z" fill="#fff"/></svg>