<?xml version="1.0" encoding="utf-8"?>
<!-- Generator: Adobe Illustrator 22.1.0, SVG Export Plug-In . SVG Version: 6.00 Build 0)  -->
<svg version="1.1" id="Vrstva_1" xmlns="http://www.w3.org/2000/svg" xmlns:xlink="http://www.w3.org/1999/xlink" x="0px" y="0px"
	 viewBox="0 0 500 500" style="enable-background:new 0 0 500 500;" xml:space="preserve">
<style type="text/css">
	.st0{fill:#424C56;}
	.st1{fill:#FFFFFF;}
</style>
<g>
	<rect x="-0.3" y="0" class="st0" width="500" height="500"/>
	<path class="st1" d="M302.6,316.9c0,0,14.1,19,18.5,22.6c4.4,3.6,104.9,35.4,120.9,56.8C462.6,424,469.5,500,469,500H31
		c-0.5,0,5.8-76,26.4-103.7c16-21.4,116.4-53.2,120.9-56.8c4.4-3.6,18.5-22.6,18.5-22.6h1v-20.5c0-0.2-0.1-0.4-0.2-0.6
		c-5.9-7.5-10.5-15.1-13.5-21.2c-2-4.1-3.7-12.7-5.1-23.8c0-0.3-0.2-0.6-0.5-0.7c-16.2-7.9-18.1-34-18.8-48.7
		c-0.3-7,2.9-7.9,6.6-6.6c0.7,0.2,1.4-0.4,1.1-1.1c-6-16.3-11-33-14.9-49.9c-0.1-0.5-0.6-0.8-1-0.7c-1.9,0.4-3.9,0.8-5.8,1.2
		c-0.7,0.1-1.3-0.6-1-1.3c6.3-13,18.4-23.1,32.3-27.1c0.4-0.1,0.6-0.4,0.6-0.8c0.1-3.2,0.7-6.4,1.7-9.4c0.3-0.9,1.6-0.8,1.7,0.1
		c0,0,0,0,0,0.1c0.2,0.9,1.4,1,1.7,0.2c2.4-7,6.2-13.5,11-19c0.6-0.7,1.7-0.1,1.6,0.8c-0.6,3.1-1.2,6.3-1.8,9.4
		c-0.2,0.8,0.8,1.4,1.5,0.8c18.8-16.9,48.6-13.8,63.9-9c0.6,0.2,1.3,0.4,1.9,0.5c0.1,0,0.3,0,0.4,0c10.7-2,21.1-5.7,30.5-11.1
		c0.7-0.4,1.6,0.3,1.3,1c-1.2,3.6-4.4,6.6-7.4,9.6c-0.6,0.6-0.1,1.6,0.7,1.5c20.4-1.2,43.3-5.6,48.4-6.5c0.5-0.1,1.1,0.3,1.1,0.9
		c0.1,6.1-1.6,13.7-3.7,20.6c-0.2,0.7,0.5,1.4,1.2,1.1c2.5-1.1,4.9-2.3,7.3-3.7c0.7-0.4,1.6,0.3,1.3,1.1c-2.7,6.9-5.3,13.9-8,20.8
		c-0.3,0.8,0.6,1.6,1.3,1.1c0.5-0.4,1.1-0.7,1.6-1.1c0.6-0.4,1.4,0,1.4,0.7c0.6,21.4,0.2,43.1-6.8,63.3c-0.5,1.3-1,2.6-1.6,3.9
		c-0.3,0.8-0.6,1.7-0.9,2.5c-0.3,0.8,0.5,1.5,1.3,1.1c4.7-2.5,9.7-3.2,9.3,5.4c-0.7,14.7-2.7,40.9-18.8,48.7
		c-0.3,0.1-0.5,0.4-0.5,0.7c-1.5,11-3.2,19.7-5.1,23.8c-2.9,6-7.4,13.4-13.1,20.8c-0.1,0.2-0.2,0.3-0.2,0.5v21H302.6z"/>
</g>
</svg>
